<?xml version="1.0" encoding="iso-8859-1"?>
<!-- Uploaded to: SVG Repo, www.svgrepo.com, Generator: SVG Repo Mixer Tools -->
<svg height="800px" width="800px" version="1.1" id="Layer_1" xmlns="http://www.w3.org/2000/svg" xmlns:xlink="http://www.w3.org/1999/xlink" 
	 viewBox="0 0 512 512" xml:space="preserve">
<path style="fill:#91DC5A;" d="M403.527,512H108.473c-19.38,0-35.972-14.478-38.598-33.685L39.109,252.695
	c-0.652-4.783,0.794-9.609,3.967-13.24c3.169-3.63,7.756-5.717,12.576-5.717h400.696c4.821,0,9.407,2.087,12.576,5.718
	c3.174,3.631,4.619,8.457,3.967,13.24l-30.767,225.619C439.5,497.522,422.908,512,403.527,512z"/>
<path style="fill:#6FA945;" d="M189.217,100.174c-27.619,0-50.087-22.468-50.087-50.087S161.598,0,189.217,0
	s50.087,22.468,50.087,50.087S216.836,100.174,189.217,100.174z M189.217,33.391c-9.206,0-16.696,7.49-16.696,16.696
	s7.49,16.696,16.696,16.696s16.696-7.49,16.696-16.696S198.423,33.391,189.217,33.391z"/>
<path style="fill:#51951F;" d="M322.783,100.174c-27.619,0-50.087-22.468-50.087-50.087S295.164,0,322.783,0
	s50.087,22.468,50.087,50.087S350.402,100.174,322.783,100.174z M322.783,33.391c-9.206,0-16.696,7.49-16.696,16.696
	s7.49,16.696,16.696,16.696c9.206,0,16.696-7.49,16.696-16.696S331.989,33.391,322.783,33.391z"/>
<path style="fill:#6FA945;" d="M97.169,200.348c-3.467,0-6.957-1.076-9.951-3.294c-7.402-5.511-8.94-15.968-3.435-23.369
	l77.103-103.696c5.516-7.392,15.968-8.902,23.358-3.435c7.402,5.511,8.94,15.968,3.435,23.369l-77.103,103.696
	C107.299,198.022,102.266,200.348,97.169,200.348z"/>
<path style="fill:#51951F;" d="M414.831,200.348c-5.098,0-10.131-2.326-13.408-6.728L324.321,89.924
	c-5.505-7.402-3.967-17.859,3.435-23.369c7.402-5.478,17.859-3.957,23.358,3.435l77.103,103.696
	c5.505,7.402,3.967,17.859-3.435,23.369C421.788,199.272,418.298,200.348,414.831,200.348z"/>
<path style="fill:#6DC82A;" d="M456.348,233.739H256V512h147.527c19.38,0,35.972-14.478,38.598-33.685l30.767-225.619
	c0.652-4.783-0.794-9.609-3.967-13.24C465.755,235.826,461.168,233.739,456.348,233.739z"/>
<g>
	<path style="fill:#6FA945;" d="M256,445.217c-9.223,0-16.696-7.479-16.696-16.696V317.217c0-9.217,7.473-16.696,16.696-16.696
		s16.696,7.479,16.696,16.696v111.304C272.696,437.739,265.223,445.217,256,445.217z"/>
	<path style="fill:#6FA945;" d="M155.826,445.217c-9.223,0-16.696-7.479-16.696-16.696V317.217c0-9.217,7.473-16.696,16.696-16.696
		s16.696,7.479,16.696,16.696v111.304C172.522,437.739,165.049,445.217,155.826,445.217z"/>
</g>
<g>
	<path style="fill:#51951F;" d="M272.696,428.522V317.217c0-9.217-7.473-16.696-16.696-16.696v144.696
		C265.223,445.217,272.696,437.739,272.696,428.522z"/>
	<path style="fill:#51951F;" d="M356.174,445.217c-9.223,0-16.696-7.479-16.696-16.696V317.217c0-9.217,7.473-16.696,16.696-16.696
		S372.87,308,372.87,317.217v111.304C372.87,437.739,365.397,445.217,356.174,445.217z"/>
</g>
<path style="fill:#B6E892;" d="M506.435,228.174c0,21.515-17.441,38.957-38.957,38.957H44.522
	c-21.515,0-38.957-17.441-38.957-38.957v-22.261c0-21.515,17.441-38.957,38.957-38.957h422.957
	c21.515,0,38.957,17.441,38.957,38.957V228.174z"/>
<path style="fill:#91DC5A;" d="M467.478,166.957H256V267.13h211.478c21.478,0,38.957-17.478,38.957-38.957v-22.261
	C506.435,184.435,488.957,166.957,467.478,166.957z"/>
</svg>