<svg width="578" height="377" viewBox="0 0 578 377" fill="none" xmlns="http://www.w3.org/2000/svg">
<path d="M19.6224 188.06H88.0308V241.05H19.6224V188.06Z" fill="#141414"/>
<path d="M7.83062 188.061H70.407V241.05H7.83062V188.061Z" fill="#A1C487"/>
<path d="M7.66013 241.259H70.6622V187.845H7.66013V241.259ZM70.1941 240.835H8.04342V188.269H70.1941V240.835Z" fill="#141414"/>
<path d="M29.2851 188.061V201.277L33.2013 199.117L36.2237 201.15L39.8421 199.117L43.1626 201.277V188.061H29.2851Z" fill="#141414"/>
<path d="M43.1641 214.066H57.595V214.914H43.1641V214.066Z" fill="#141414"/>
<path d="M43.1641 219.656H57.595V220.504H43.1641V219.656Z" fill="#141414"/>
<path d="M43.1641 225.25H57.595V226.098H43.1641V225.25Z" fill="#141414"/>
<path d="M15.5787 212.922H38.949V227.451H15.5787V212.922Z" fill="#FEFEFE"/>
<path d="M15.3662 227.622H39.1622V212.669H15.3662V227.622ZM38.7365 227.198H15.7919V213.093H38.7365V227.198Z" fill="#141414"/>
<path d="M86.1599 250.751H67.8977C67.0463 250.751 66.195 251.132 65.6842 251.81L56.4466 263.374C54.9567 265.238 56.2764 267.949 58.6603 267.949H86.1599V250.751Z" fill="#F27B79"/>
<path d="M58.6602 268.156H86.3727V250.535H67.8976C66.9611 250.535 66.0673 250.959 65.5139 251.679L56.2763 263.243C55.5527 264.175 55.3825 265.403 55.9359 266.462C56.4041 267.479 57.4683 268.156 58.6602 268.156ZM85.947 267.733H58.6602C57.6386 267.733 56.7446 267.182 56.2763 266.25C55.8507 265.318 55.9359 264.259 56.5744 263.497L65.8117 251.933C66.3226 251.297 67.0464 250.959 67.8552 250.959H85.9044V267.733H85.947Z" fill="#141414"/>
<path d="M272.229 178.066C272.229 179.633 270.953 180.862 269.42 180.862H260.225C258.65 180.862 257.416 179.591 257.416 178.066C257.416 176.499 258.693 175.27 260.225 175.27H269.42C270.953 175.228 272.229 176.499 272.229 178.066Z" fill="#141414"/>
<path d="M237.535 181.365H248.858V197.334H237.535V181.365Z" fill="#141414"/>
<path d="M266.694 299.797V206.44C266.694 198.519 260.223 192.081 252.263 192.081H210.545C202.585 192.081 196.114 198.519 196.114 206.44V292.427C196.114 299.712 190.197 305.6 182.875 305.6H171.169C163.847 305.6 157.93 299.712 157.93 292.427V254.855C157.93 254.855 158.228 243.503 165.252 241.851H93.1402C93.1402 241.851 63.1716 266.165 56.8714 305.346V309.666H266.694V299.797Z" fill="#A1C487"/>
<path d="M56.6587 309.881H266.907V206.443C266.907 198.395 260.351 191.872 252.263 191.872H210.545C202.457 191.872 195.902 198.395 195.902 206.443V292.429C195.902 299.588 190.07 305.391 182.876 305.391H171.169C163.975 305.391 158.143 299.588 158.143 292.429V254.858C158.143 254.731 158.484 243.676 165.337 242.066L167.125 241.642H93.0978L93.0552 241.685C92.97 241.727 85.4353 247.911 77.262 258.755C69.6848 268.794 59.9792 285.017 56.7439 305.306L56.6587 309.881ZM266.481 309.457H57.0844V305.349C60.3196 285.186 69.9828 269.006 77.5175 259.051C85.3076 248.716 92.5017 242.659 93.2254 242.066H163.975C158.058 244.65 157.76 254.392 157.717 254.858V292.429C157.717 299.8 163.762 305.814 171.169 305.814H182.876C190.283 305.814 196.327 299.8 196.327 292.429V206.443C196.327 198.649 202.713 192.296 210.545 192.296H252.263C260.096 192.296 266.481 198.649 266.481 206.443V309.457Z" fill="#141414"/>
<path d="M238.259 192.039H243.367V285.904H238.259V192.039Z" fill="#141414"/>
<path d="M2.28882e-05 239.565H97.3979V244.394H2.28882e-05V239.565Z" fill="#141414"/>
<path d="M109.445 309.926H177.13V323.777H109.445V309.926Z" fill="#141414"/>
<path d="M85.0536 351.056C68.0323 351.056 54.2338 335.448 54.2338 316.195C54.2338 296.942 68.0323 281.335 85.0536 281.335C102.075 281.335 115.874 296.942 115.874 316.195C115.874 335.448 102.075 351.056 85.0536 351.056Z" fill="#141414"/>
<path d="M79.8592 337.326C68.7859 337.326 59.8091 327.161 59.8091 314.622C59.8091 302.084 68.7859 291.919 79.8592 291.919C90.9325 291.919 99.9092 302.084 99.9092 314.622C99.9092 327.161 90.9325 337.326 79.8592 337.326Z" fill="#FEFEFE"/>
<path d="M79.8595 337.542C91.0551 337.542 100.122 327.249 100.122 314.626C100.122 302.003 91.0125 291.71 79.8595 291.71C68.7064 291.71 59.5966 302.003 59.5966 314.626C59.5966 327.249 68.6638 337.542 79.8595 337.542ZM79.8595 292.134C90.7997 292.134 99.6966 302.215 99.6966 314.626C99.6966 327.037 90.7997 337.118 79.8595 337.118C68.9192 337.118 60.0223 327.037 60.0223 314.626C60.0223 302.215 68.9192 292.134 79.8595 292.134Z" fill="#141414"/>
<path d="M90.4595 314.75C90.4595 319.791 88.0756 324.281 80.4558 324.281C75.986 324.281 74.3259 319.791 74.3259 314.75C74.3259 309.709 76.0286 305.6 80.4558 305.6C88.0756 305.6 90.4595 309.667 90.4595 314.75Z" fill="#141414"/>
<path d="M79.9441 323.899C75.4772 323.899 71.856 319.803 71.856 314.75C71.856 309.696 75.4772 305.6 79.9441 305.6C84.4111 305.6 88.0322 309.696 88.0322 314.75C88.0322 319.803 84.4111 323.899 79.9441 323.899Z" fill="#FEFEFE"/>
<path d="M79.9445 324.07C84.4994 324.07 88.2455 319.876 88.2455 314.708C88.2455 309.541 84.542 305.347 79.9445 305.347C75.3471 305.347 71.6436 309.541 71.6436 314.708C71.6436 319.876 75.3896 324.07 79.9445 324.07ZM79.9445 305.813C84.2866 305.813 87.8198 309.837 87.8198 314.751C87.8198 319.664 84.2866 323.689 79.9445 323.689C75.6025 323.689 72.0693 319.664 72.0693 314.751C72.0693 309.837 75.6025 305.813 79.9445 305.813Z" fill="#141414"/>
<path d="M258.692 351.056C241.671 351.056 227.872 335.448 227.872 316.195C227.872 296.942 241.671 281.335 258.692 281.335C275.714 281.335 289.512 296.942 289.512 316.195C289.512 335.448 275.714 351.056 258.692 351.056Z" fill="#141414"/>
<path d="M253.498 337.326C242.424 337.326 233.448 327.161 233.448 314.622C233.448 302.084 242.424 291.919 253.498 291.919C264.571 291.919 273.548 302.084 273.548 314.622C273.548 327.161 264.571 337.326 253.498 337.326Z" fill="#FEFEFE"/>
<path d="M253.498 337.542C264.694 337.542 273.761 327.249 273.761 314.626C273.761 302.003 264.651 291.71 253.498 291.71C242.345 291.71 233.235 302.003 233.235 314.626C233.235 327.249 242.302 337.542 253.498 337.542ZM253.498 292.134C264.438 292.134 273.335 302.215 273.335 314.626C273.335 327.037 264.438 337.118 253.498 337.118C242.558 337.118 233.661 327.037 233.661 314.626C233.661 302.215 242.558 292.134 253.498 292.134Z" fill="#141414"/>
<path d="M264.098 314.75C264.098 319.791 261.714 323.899 254.094 323.899C249.625 323.899 247.964 319.791 247.964 314.75C247.964 309.709 249.667 305.6 254.094 305.6C261.714 305.6 264.098 309.667 264.098 314.75Z" fill="#141414"/>
<path d="M253.583 323.899C249.116 323.899 245.495 319.803 245.495 314.75C245.495 309.696 249.116 305.6 253.583 305.6C258.05 305.6 261.671 309.696 261.671 314.75C261.671 319.803 258.05 323.899 253.583 323.899Z" fill="#FEFEFE"/>
<path d="M253.582 324.07C258.137 324.07 261.883 319.876 261.883 314.708C261.883 309.541 258.18 305.347 253.582 305.347C248.985 305.347 245.281 309.541 245.281 314.708C245.281 319.876 249.027 324.07 253.582 324.07ZM253.582 305.813C257.924 305.813 261.458 309.837 261.458 314.751C261.458 319.664 257.924 323.689 253.582 323.689C249.24 323.689 245.707 319.664 245.707 314.751C245.707 309.837 249.283 305.813 253.582 305.813Z" fill="#141414"/>
<path d="M28.394 305.477H32.3104C32.8213 301.453 36.2692 298.361 40.4409 298.361H127.452V314.711H40.4409C36.482 314.711 33.1617 311.916 32.3954 308.188H28.394V305.477Z" fill="#141414"/>
<path d="M43.8466 309.666C43.8466 309.666 38.4404 266.546 89.0549 254.813C107.317 250.577 149.247 247.824 139.84 309.666H43.8466Z" fill="#A1C487"/>
<path d="M43.6325 309.881H139.966L140.009 309.712C143.499 286.712 140.221 270.361 130.26 261.212C118.086 249.987 99.1424 252.275 88.9684 254.647C77.3897 257.315 67.8117 261.89 60.4472 268.201C54.5727 273.242 50.1031 279.426 47.2085 286.584C42.2705 298.741 43.5475 309.585 43.5901 309.712L43.6325 309.881ZM139.625 309.458H44.0158C43.8881 307.975 43.0793 297.894 47.6341 286.712C52.1464 275.614 63.0014 261.085 89.0536 255.028C99.1425 252.698 117.915 250.411 129.962 261.509C139.838 270.573 143.074 286.712 139.625 309.458Z" fill="#141414"/>
<path d="M160.484 244.395H97.0135C90.4153 244.395 85.0516 239.058 85.0516 232.493C85.0516 225.546 91.0112 220.082 97.9499 220.633L161.207 225.631C166.103 226.012 169.891 230.079 169.891 234.992C169.891 240.16 165.677 244.395 160.484 244.395Z" fill="#141414"/>
<path d="M225.53 304.885H298.068C298.068 304.885 296.876 294.253 289.682 284.595C273.931 263.628 241.196 266.509 229.617 289.975C227.531 294.126 226.084 299.039 225.53 304.885Z" fill="#A1C487"/>
<path d="M225.275 305.092H298.281L298.238 304.838C298.238 304.71 296.961 294.036 289.81 284.463C282.36 274.509 270.441 269.257 257.925 270.401C245.495 271.544 234.853 278.83 229.362 289.885C227.191 294.333 225.786 299.331 225.275 304.838V305.092ZM297.812 304.668H225.786C226.297 299.331 227.659 294.418 229.787 290.097C235.194 279.169 245.708 271.968 258.01 270.867C270.355 269.723 282.147 274.933 289.512 284.76C295.982 293.443 297.557 303.059 297.812 304.668Z" fill="#141414"/>
<path d="M43.3357 312.463H229.916V306.872H297.983V301.789H229.788C227.021 301.789 224.807 304.034 224.807 306.745V307.38H43.3357V312.463Z" fill="#141414"/>
<path d="M174.235 339.868H186.708V334.785H175.981L151.972 316.571L148.907 320.595L174.235 339.868Z" fill="#141414"/>
<path d="M237.151 186.663H252.689C253.625 186.663 254.562 186.536 255.413 186.324C260.351 185.095 264.012 180.648 264.012 175.353C264.012 172.219 262.735 169.423 260.692 167.39C259.244 165.95 257.456 164.933 255.413 164.425C254.519 164.213 253.625 164.086 252.646 164.086H250.39C242.6 164.086 235.15 167.941 231.106 174.591C230.894 174.93 230.681 175.311 230.468 175.692C227.871 180.69 231.489 186.663 237.151 186.663Z" fill="#A1C487"/>
<path d="M237.151 186.874H252.689C253.625 186.874 254.562 186.747 255.498 186.535C260.649 185.264 264.268 180.689 264.268 175.352C264.268 172.26 263.076 169.38 260.862 167.22C259.372 165.737 257.499 164.678 255.498 164.17C254.562 163.958 253.625 163.831 252.689 163.831H250.433C242.43 163.831 234.98 167.897 230.979 174.463C230.766 174.844 230.553 175.183 230.34 175.564C229.063 177.936 229.106 180.774 230.51 183.104C231.958 185.476 234.427 186.874 237.151 186.874ZM252.689 164.297C253.583 164.297 254.519 164.424 255.371 164.636C257.329 165.102 259.117 166.118 260.564 167.559C262.65 169.634 263.842 172.43 263.842 175.395C263.842 180.52 260.351 184.925 255.413 186.154C254.519 186.365 253.625 186.492 252.731 186.492H237.194C234.597 186.492 232.256 185.179 230.936 182.934C229.616 180.732 229.531 178.063 230.766 175.818C230.979 175.437 231.192 175.098 231.404 174.717C235.321 168.279 242.643 164.297 250.475 164.297H252.689Z" fill="#141414"/>
<path d="M247.624 175.396C247.624 179.886 249.582 183.91 252.69 186.706H252.732C258.99 186.706 264.098 181.665 264.098 175.396C264.098 172.262 262.821 169.466 260.778 167.433C258.735 165.4 255.882 164.129 252.775 164.129H252.732C249.54 166.882 247.624 170.906 247.624 175.396Z" fill="#141414"/>
<path d="M250.73 175.392C250.73 179.713 252.518 183.568 255.412 186.363C260.35 185.135 264.011 180.687 264.011 175.392C264.011 172.258 262.734 169.462 260.691 167.429C259.244 165.988 257.456 164.972 255.412 164.463C252.518 167.174 250.73 171.071 250.73 175.392Z" fill="#FEFEFE"/>
<path d="M255.373 186.579L255.501 186.536C260.652 185.265 264.27 180.691 264.27 175.354C264.27 172.262 263.078 169.381 260.864 167.221C259.375 165.738 257.501 164.68 255.501 164.171L255.373 164.129L255.288 164.214C252.223 167.136 250.52 171.076 250.52 175.311C250.52 179.547 252.223 183.486 255.288 186.409L255.373 186.579ZM255.501 164.68C257.416 165.188 259.162 166.162 260.566 167.56C262.652 169.635 263.844 172.431 263.844 175.396C263.844 180.479 260.439 184.842 255.501 186.113C252.563 183.275 250.946 179.462 250.946 175.396C250.946 171.287 252.563 167.518 255.501 164.68Z" fill="#141414"/>
<path d="M221.87 176.37H230.257V179.801H221.87V176.37Z" fill="#A1C487"/>
<path d="M221.699 180.055H230.511V176.2H221.699V180.055ZM230.043 179.631H222.082V176.624H230.043V179.631Z" fill="#141414"/>
<path d="M233.405 175.227H230.042C228.467 175.227 227.232 176.498 227.232 178.023C227.232 179.59 228.509 180.818 230.042 180.818H233.405C234.98 180.818 236.214 179.548 236.214 178.023C236.214 176.498 234.98 175.227 233.405 175.227Z" fill="#141414"/>
<path d="M223.486 178.066C223.486 179.633 222.209 180.862 220.677 180.862H211.482C209.907 180.862 208.672 179.591 208.672 178.066C208.672 176.499 209.949 175.27 211.482 175.27H220.677C222.209 175.228 223.486 176.499 223.486 178.066Z" fill="#141414"/>
<path d="M71.558 298.825H113.105V301.197H71.558V298.825Z" fill="white"/>
<path d="M71.3455 301.411H113.319V298.615H71.3455V301.411ZM112.893 300.987H71.7712V299.039H112.893V300.987Z" fill="#141414"/>
<path d="M71.558 292.557H113.105V294.929H71.558V292.557Z" fill="white"/>
<path d="M71.3455 295.138H113.319V292.343H71.3455V295.138ZM112.893 294.715H71.7712V292.766H112.893V294.715Z" fill="#141414"/>
<path d="M71.558 286.328H113.105V288.7H71.558V286.328Z" fill="white"/>
<path d="M71.3455 288.916H113.319V286.12H71.3455V288.916ZM112.893 288.492H71.7712V286.544H112.893V288.492Z" fill="#141414"/>
<path d="M134.815 339.825H222.082V340.673H134.815V339.825Z" fill="#141414"/>
<path d="M304.799 357.345H578V358H304.799V357.345Z" fill="#141414"/>
<path d="M367.04 357.254H400.326C400.326 357.254 398.226 350.121 383.477 344.26L383.523 342.625L383.66 333.765H367.907L367.634 341.58L367.04 357.254Z" fill="#141414"/>
<path d="M366.766 357.486H400.6L400.509 357.214C400.418 356.941 398.226 349.945 383.661 344.129L383.798 333.588H367.588L366.766 357.486ZM400.007 357.032H367.269L368.091 333.997H383.387L383.25 344.402L383.387 344.447C396.172 349.581 399.413 355.669 400.007 357.032Z" fill="#141414"/>
<path d="M323.664 357.254H356.95C356.95 357.254 354.85 350.121 340.101 344.26L340.239 343.169L341.517 333.765H325.764L325.034 341.943L323.664 357.254Z" fill="#141414"/>
<path d="M323.39 357.485H357.27L357.178 357.212C357.087 356.939 354.896 349.943 340.33 344.127L341.745 333.541H325.536L323.39 357.485ZM356.631 357.03H323.892L325.947 333.995H341.243L339.828 344.4L340.01 344.445C352.841 349.579 356.037 355.667 356.631 357.03Z" fill="#141414"/>
<path d="M520.276 357.254H553.562L551.417 340.671L550.549 333.765H534.796L536.668 342.261L537.125 346.077C521.646 350.802 520.276 357.254 520.276 357.254Z" fill="#141414"/>
<path d="M520.003 357.485H553.837L550.777 333.541H534.523L536.486 342.31L536.897 345.899C521.646 350.579 520.094 356.939 520.048 357.212L520.003 357.485ZM553.334 357.03H520.596C521.098 355.758 523.884 350.351 537.216 346.308L537.399 346.262L536.942 342.264L535.116 334.041H550.367L553.334 357.03Z" fill="#141414"/>
<path d="M481.922 357.254H515.208L514.386 340.943L514.021 333.765H498.268L498.679 342.488L498.77 345.577C484.022 351.484 481.922 357.254 481.922 357.254Z" fill="#141414"/>
<path d="M481.602 357.485H515.481L514.248 333.541H498.039L498.496 342.537L498.587 345.49C484.022 351.306 481.83 356.985 481.739 357.212L481.602 357.485ZM514.979 357.03H482.286C482.971 355.758 486.35 350.806 498.861 345.808L498.998 345.763L498.907 342.491L498.496 333.995H513.792L514.979 357.03Z" fill="#141414"/>
<path d="M393.204 31.7682L370.054 26.5887L367.543 35.3574C366.904 34.9031 366.265 34.6305 365.671 34.6305C362.931 34.6305 362.384 37.9017 362.384 37.9017C361.607 41.4455 363.936 43.6263 364.986 45.1711L357.041 70.4776L376.721 73.5217L378.41 57.3473C395.35 65.8434 393.204 31.7682 393.204 31.7682Z" fill="#FFAC71"/>
<path d="M376.95 73.7026L378.639 57.6191C381.972 59.2093 384.849 59.3001 387.132 57.8008C394.711 52.8031 393.524 32.5852 393.478 31.7219V31.5402L369.918 26.2699L367.452 34.9023C366.859 34.4934 366.265 34.3116 365.717 34.3116C362.841 34.3116 362.201 37.7192 362.201 37.7646C361.516 40.8541 363.114 42.8986 364.256 44.3979C364.439 44.6251 364.621 44.8522 364.758 45.0794L356.768 70.5222L376.95 73.7026ZM378.228 56.9376L376.539 73.2028L357.361 70.2042L365.261 45.0794L365.215 44.9885C365.032 44.7614 364.85 44.4888 364.621 44.2162C363.526 42.7623 362.019 40.8086 362.658 37.9463C362.703 37.81 363.206 34.8568 365.717 34.8568C366.265 34.8568 366.859 35.084 367.452 35.5383L367.726 35.7201L370.283 26.8605L393.068 31.9491C393.159 33.9482 393.935 52.8485 386.903 57.4373C384.712 58.8912 381.881 58.7549 378.593 57.1193L378.228 56.9376Z" fill="#141414"/>
<path d="M400.144 21.8652C399.094 21.638 396.446 21.8652 394.848 23.1828C394.939 23.001 395.03 22.8193 395.122 22.6376C397.496 15.5496 387.496 20.8201 382.2 21.8652C381.104 22.0923 378.684 22.4104 378.684 22.4104C362.84 18.821 364.438 34.9051 364.438 34.9051C368.593 34.3145 369.826 39.9484 369.826 39.9484C374.072 37.9493 375.397 35.0869 375.533 33.8601C379.643 35.723 390.19 39.2669 398.912 32.9968C404.893 28.6805 402.793 22.365 400.144 21.8652Z" fill="#141414"/>
<path d="M492.104 89.2456C492.104 89.2456 498.542 77.2965 499.09 71.3447L496.396 58.2599C496.396 58.2599 496.076 45.7202 512.651 48.7643C512.651 48.7643 512.56 42.8579 516.487 41.4495C516.487 41.4495 514.569 44.7661 515.254 48.0373C515.254 48.0373 518.45 40.768 524.477 44.5844C524.477 44.5844 529.135 47.1286 527.902 51.7629C527.902 51.7629 527.993 57.0332 520.733 57.124C520.733 57.124 520.824 63.7119 536.851 72.6623C536.851 72.6623 550.184 79.023 549.088 92.8802C547.992 106.737 535.573 115.461 535.573 115.461L489.912 115.506L492.104 89.2456Z" fill="#141414"/>
<path d="M517.446 94.3329L515.482 71.4798C515.482 71.4798 518.907 69.4807 518.039 65.5734C518.039 65.5734 517.217 62.4385 514.067 64.8465L513.976 59.3036C513.976 59.3036 502.926 63.438 496.488 57.2136C496.488 57.2136 491.83 78.84 501.647 78.7946L499.547 96.968L517.446 94.3329Z" fill="#FFAC71"/>
<path d="M499.319 97.2408L517.72 94.5602L515.756 71.6163C516.395 71.2074 519.089 69.1629 518.313 65.5282C518.313 65.4828 517.948 64.1652 516.852 63.8017C516.121 63.5746 515.3 63.7563 514.341 64.3924L514.249 58.9858L513.93 59.0766C513.839 59.1221 502.971 63.0748 496.67 57.0321L496.396 56.7595L496.305 57.1684C496.168 57.7591 493.2 71.8435 497.492 77.0683C498.497 78.295 499.821 78.9311 501.419 78.9765L499.319 97.2408ZM517.217 94.1513L499.866 96.6956L501.967 78.5676H501.693C500.095 78.5676 498.816 77.977 497.857 76.7957C494.113 72.2069 496.259 60.0307 496.716 57.6682C502.606 62.9385 512.012 60.2125 513.838 59.6218L513.93 65.301L514.295 65.0284C515.254 64.3015 516.076 64.0289 516.715 64.2561C517.583 64.5287 517.902 65.6645 517.902 65.6645C518.724 69.39 515.573 71.2528 515.437 71.3437L515.3 71.4346V71.5709L517.217 94.1513Z" fill="#141414"/>
<path d="M367.589 341.625L383.478 342.624L383.615 333.764H367.863L367.589 341.625Z" fill="#141414"/>
<path d="M325.033 341.943L340.238 343.169L341.517 333.764H325.764L325.033 341.943Z" fill="#141414"/>
<path d="M347.727 150.941L348.366 154.394L352.247 175.702L362.293 230.495L362.886 248.578L365.945 339.172H392.52L395.488 231.04L391.287 170.75L389.871 150.941H347.727Z" fill="#CDCBCC"/>
<path d="M365.716 339.402H392.747V339.175L395.715 231.043L390.099 150.717H347.452L362.064 230.543L365.716 339.402ZM392.291 338.948H366.127L362.475 230.498L347.955 151.171H389.597L395.259 231.089L392.291 338.948Z" fill="#141414"/>
<path d="M534.796 333.764L536.714 342.261L551.462 340.67L550.549 333.764H534.796Z" fill="#141414"/>
<path d="M498.268 333.764L498.679 342.533L514.386 340.943L514.02 333.764H498.268Z" fill="#141414"/>
<path d="M320.696 339.629H347.545L362.886 248.58L366.311 228.18L372.155 175.568L374.484 154.396H330.879L331.061 171.115L331.7 226.272L320.696 339.629Z" fill="#CDCBCC"/>
<path d="M320.468 339.853H347.773L347.818 339.671L366.585 228.222L374.804 154.166H330.696L331.518 226.269L320.468 339.853ZM347.362 339.398H320.97L331.929 226.314L331.107 154.62H374.256L366.082 228.132L347.362 339.398Z" fill="#141414"/>
<path d="M485.574 217.183L492.606 339.172H516.897L516.075 261.844L515.573 217.728L519.089 176.838L520.459 160.527L500.094 160.209L488.588 159.982L487.629 178.291L485.574 217.183Z" fill="#141414"/>
<path d="M492.423 339.402H517.126V339.175L515.801 217.731L520.733 160.303L488.405 159.758L485.346 217.186L492.423 339.402ZM516.669 338.948H492.834L485.803 217.186L488.816 160.212L520.23 160.757L515.345 217.731L516.669 338.948Z" fill="#141414"/>
<path d="M330.878 154.397L331.061 171.117C338.641 173.616 345.764 175.07 352.247 175.706C359.69 176.478 366.402 176.251 372.155 175.524C380.785 174.479 387.36 172.298 391.241 170.708L389.871 150.899H347.727L348.366 154.352H330.878V154.397Z" fill="#141414"/>
<path d="M499.82 158.303L500.094 160.211L502.696 179.066L509.591 228.771L516.075 261.846L531.051 338.447L553.288 338.902L543.06 226.363L540.229 167.571L539.727 157.213L499.82 158.303Z" fill="#141414"/>
<path d="M553.563 339.129V338.856L543.335 226.317L539.956 156.94L499.592 158.03L509.364 228.816L530.87 338.674L553.563 339.129ZM539.499 157.439L542.832 226.362L553.06 338.629L531.235 338.174L509.82 228.679L500.095 158.484L539.499 157.439Z" fill="#141414"/>
<path d="M490.506 92.5125L472.79 115.456L448.042 120.272V137.992L477.036 135.265C479.045 135.084 480.918 134.357 482.561 133.221L494.159 125.043L490.506 92.5125Z" fill="#CDCBCC"/>
<path d="M447.814 138.265L477.082 135.493C479.091 135.312 481.054 134.585 482.744 133.403L494.479 125.135L490.734 91.9226L472.699 115.23L447.86 120.091V138.265H447.814ZM493.976 124.953L482.47 133.085C480.872 134.221 479 134.903 477.036 135.084L448.27 137.811V120.5L472.927 115.684L472.973 115.639L490.369 93.1493L493.976 124.953Z" fill="#141414"/>
<path d="M377.862 67.7093C377.862 67.7093 374.437 75.7511 359.05 59.8948L332.658 69.5721C328.914 71.2077 326.266 74.6152 325.581 78.6134L321.426 101.966H335.854L329.188 164.392C329.188 164.392 348.639 169.526 363.525 169.844C388.09 170.389 393.523 166.028 393.523 166.028L392.427 143.856L392.245 93.4247C392.519 86.2462 389.505 80.8396 385.213 75.0241L377.862 67.7093Z" fill="#A1C487"/>
<path d="M367.634 170.117C388.501 170.117 393.432 166.346 393.615 166.21L393.706 166.119L392.61 143.811L392.428 93.3797C392.702 86.3375 389.78 80.84 385.351 74.8428L377.771 67.3008L377.634 67.6189C377.588 67.6643 376.949 69.0727 375.031 69.4362C372.52 69.8905 367.771 68.573 359.187 59.7134L359.096 59.6226L358.959 59.668L332.567 69.3453C328.732 71.0264 326.038 74.4793 325.353 78.5683L321.152 102.194H335.581L328.915 164.574L329.097 164.62C329.28 164.665 348.731 169.754 363.479 170.117C364.895 170.117 366.31 170.117 367.634 170.117ZM393.25 165.892C392.428 166.437 385.99 170.117 363.479 169.617C349.599 169.299 331.472 164.71 329.417 164.211L336.083 101.694H321.7L325.81 78.6138C326.495 74.6611 329.052 71.3444 332.75 69.7542L359.005 60.1678C367.68 69.0727 372.611 70.3903 375.168 69.8905C376.812 69.5725 377.634 68.573 377.954 68.0732L385.077 75.1154C389.551 81.2035 392.291 86.4284 392.017 93.3797L392.2 143.811L393.25 165.892Z" fill="#141414"/>
<path d="M393.615 91.1519H466.443V147.58H393.615V91.1519Z" fill="#141414"/>
<path d="M381.058 91.1519H447.676V147.58H381.058V91.1519Z" fill="#FEFEFE"/>
<path d="M380.83 147.804H447.905V90.9216H380.83V147.804ZM447.448 147.35H381.287V91.376H447.448V147.35Z" fill="#141414"/>
<path d="M403.888 91.1521V105.237L408.043 102.965L411.24 105.101L415.075 102.965L418.636 105.237V91.1521H403.888Z" fill="#141414"/>
<path d="M418.59 118.866H433.978V119.775H418.59V118.866Z" fill="#141414"/>
<path d="M418.59 124.819H433.978V125.728H418.59V124.819Z" fill="#141414"/>
<path d="M418.59 130.768H433.978V131.677H418.59V130.768Z" fill="#141414"/>
<path d="M389.277 117.64H414.161V133.088H389.277V117.64Z" fill="#FEFEFE"/>
<path d="M389.049 133.313H414.391V117.411H389.049V133.313ZM413.934 132.859H389.506V117.865H413.934V132.859Z" fill="#141414"/>
<path d="M487.63 178.295C491.465 178.84 496.716 179.294 502.697 179.067C507.72 178.885 513.29 178.249 519.044 176.841C526.03 175.114 533.29 172.206 540.184 167.572L539.682 157.213L499.821 158.303L500.095 160.211L488.588 160.03L487.63 178.295Z" fill="#141414"/>
<path d="M447.813 149.443C448.224 150.124 448.772 150.669 449.411 151.124C450.05 151.578 450.781 151.896 451.557 152.032L455.164 152.85C457.493 153.35 459.867 153.623 462.241 153.623H465.392C466.305 153.623 467.218 153.396 467.995 152.941L471.374 151.078L474.935 150.669L488.177 149.079V138.947L477.035 140.674L471.876 141.491L460.689 138.402C460.689 138.402 458.726 142.446 464.844 144.49L458.908 147.398H448.954C447.904 147.307 447.219 148.534 447.813 149.443Z" fill="#E78D4C"/>
<path d="M462.287 153.808H465.438C466.397 153.808 467.356 153.581 468.177 153.081L471.511 151.264L488.45 149.219V138.633L471.922 141.222L460.598 138.087L460.507 138.269C460.461 138.315 459.776 139.769 460.507 141.404C461.055 142.722 462.333 143.767 464.296 144.494L458.908 147.129H449C448.407 147.129 447.859 147.447 447.585 147.947C447.311 148.447 447.311 149.083 447.63 149.583C448.087 150.264 448.635 150.855 449.274 151.309C449.959 151.763 450.69 152.082 451.466 152.263L455.073 153.081C457.493 153.581 459.867 153.808 462.287 153.808ZM487.994 148.856L471.328 150.855L467.949 152.718C467.173 153.127 466.305 153.354 465.438 153.354H462.287C459.913 153.354 457.539 153.081 455.256 152.581L451.649 151.763C450.918 151.582 450.233 151.309 449.594 150.855C449 150.446 448.452 149.901 448.041 149.265C447.813 148.901 447.813 148.447 447.996 148.083C448.178 147.72 448.589 147.493 449 147.493H459L465.483 144.312L464.935 144.13C462.835 143.449 461.465 142.404 460.917 141.132C460.415 139.996 460.689 138.951 460.872 138.542L471.922 141.586L487.994 139.087V148.856Z" fill="#141414"/>
<path d="M403.067 56.439H448.225V91.4228H403.067V56.439Z" fill="#141414"/>
<path d="M395.305 56.439H436.582V91.4228H395.305V56.439Z" fill="#A1C487"/>
<path d="M395.076 91.6533H436.809V56.2151H395.076V91.6533ZM436.353 91.199H395.532V56.6694H436.353V91.199Z" fill="#141414"/>
<path d="M409.414 56.4387V65.1623L412.017 63.7538L414.026 65.0715L416.4 63.7538L418.592 65.1623V56.4387H409.414Z" fill="#141414"/>
<path d="M418.545 73.436H428.088V74.3452H418.545V73.436Z" fill="#141414"/>
<path d="M418.545 77.1094H428.088V78.0186H418.545V77.1094Z" fill="#141414"/>
<path d="M418.545 80.8381H428.088V81.7473H418.545V80.8381Z" fill="#141414"/>
<path d="M400.374 72.8423H415.807V82.4292H400.374V72.8423Z" fill="#FEFEFE"/>
<path d="M400.144 82.6533H416.034V72.6121H400.144V82.6533ZM415.577 82.1989H400.6V73.0664H415.577V82.1989Z" fill="#141414"/>
<path d="M474.981 150.625L488.223 149.035V138.903L477.082 140.629L474.981 150.625Z" fill="#141414"/>
<path d="M478.999 139.63L487.355 138.039L488.725 97.24C488.816 94.6503 490.003 92.1969 492.012 90.5159L500.551 83.4282C500.551 83.4282 502.194 93.8325 518.13 83.4282L532.878 88.6985C537.033 90.1978 540.183 93.6962 541.188 97.967L550.503 142.992C551.37 147.172 548.265 151.124 543.973 151.261L539.544 151.397L541.69 165.754C541.69 165.754 526.486 172.251 510.87 173.205C492.88 174.341 486.99 170.07 487.218 169.479L488.131 154.214L478.999 154.577V139.63Z" fill="#CDCBCC"/>
<path d="M505.026 173.703C506.806 173.703 508.77 173.658 510.87 173.522C526.349 172.567 541.599 166.116 541.782 166.025L541.965 165.934L541.919 165.752L539.819 151.668L544.019 151.532C546.12 151.441 548.083 150.487 549.407 148.806C550.731 147.17 551.234 145.035 550.777 142.99L541.462 97.9655C540.412 93.5584 537.262 90.06 532.97 88.5153L518.13 83.1996L518.039 83.245C511.875 87.2886 506.989 88.697 503.884 87.334C501.281 86.1982 500.825 83.4267 500.825 83.4267L500.779 83.0178L491.967 90.3781C489.912 92.1045 488.679 94.6034 488.588 97.284L487.218 137.902L478.862 139.492V154.939L487.994 154.576L487.081 169.569C487.035 169.705 487.081 169.796 487.172 169.932C487.72 170.796 492.515 173.703 505.026 173.703ZM541.417 165.662C539.727 166.343 525.39 172.113 510.824 173.022C493.61 174.112 487.72 170.205 487.446 169.569V169.523L488.36 153.985L479.182 154.349V139.764L487.538 138.174L488.907 97.1931C488.999 94.6488 490.186 92.2863 492.104 90.6507L500.322 83.7902C500.551 84.6534 501.327 86.6979 503.564 87.652C506.852 89.1059 511.692 87.7429 518.084 83.6085L532.741 88.8333C536.851 90.2872 539.91 93.6947 540.915 97.9655L550.229 142.99C550.64 144.898 550.138 146.897 548.951 148.442C547.718 149.987 545.891 150.896 543.928 150.987L539.225 151.123L541.417 165.662Z" fill="#141414"/>
<path d="M539.506 151.14L539.532 151.595L487.745 154.553L487.719 154.098L539.506 151.14Z" fill="#141414"/>
<path d="M487.173 138.264L526.577 130.177L523.016 110.64L522.559 110.731L526.075 129.813L487.081 137.855L487.173 138.264Z" fill="#141414"/>
<path d="M319.28 130.679C318.869 135.267 321.745 139.538 326.174 140.901L372.839 155.349L377.268 156.894C378.957 157.484 380.784 157.666 382.565 157.439L391.514 156.349C392.062 156.258 392.656 156.121 393.158 155.94L403.614 152.123C404.938 151.623 406.125 150.715 406.902 149.534L407.038 149.306C407.586 148.489 406.993 147.398 405.988 147.398H389.185C394.071 144.309 393.706 141.583 393.706 141.583L383.387 142.991L375.853 143.9L340.283 126.635L344.393 106.235L345.215 102.101H321.563L321.334 104.509L319.28 130.679Z" fill="#FFAC71"/>
<path d="M381.15 157.756C381.652 157.756 382.154 157.711 382.611 157.665L391.56 156.575C392.154 156.484 392.747 156.347 393.25 156.166L403.706 152.349C405.122 151.85 406.263 150.941 407.085 149.669L407.222 149.442C407.541 148.987 407.541 148.397 407.267 147.942C406.993 147.443 406.537 147.17 405.943 147.17H389.917C394.209 144.217 393.935 141.672 393.889 141.536L393.843 141.309L383.296 142.717L375.808 143.581L340.467 126.452L345.444 101.782H321.335L318.869 130.632C318.458 135.357 321.381 139.673 325.947 141.082L372.611 155.53L377.04 157.074C378.456 157.529 379.826 157.756 381.15 157.756ZM406.08 147.624C406.446 147.624 406.811 147.806 406.993 148.169C407.176 148.487 407.176 148.896 406.948 149.214L406.811 149.442C406.035 150.577 404.939 151.441 403.66 151.94L393.204 155.757C392.702 155.939 392.154 156.075 391.606 156.166L382.657 157.256C380.922 157.483 379.095 157.302 377.451 156.711L373.022 155.166L326.358 140.718C322.02 139.355 319.235 135.266 319.6 130.723L322.02 102.282H345.17L340.238 126.725L340.375 126.816L375.99 144.08L383.616 143.172L393.661 141.809C393.615 142.49 393.113 144.716 389.232 147.17L388.593 147.579H406.08V147.624Z" fill="#141414"/>
<path d="M347.397 92.2543L347.841 92.3604L345.317 102.832L344.873 102.726L347.397 92.2543Z" fill="#141414"/>
<path d="M321.518 104.419L344.485 106.191L345.353 102.011H321.701L321.518 104.419Z" fill="#141414"/>
<path d="M444.543 223.795C443.343 223.795 442.155 224.03 441.046 224.486C439.937 224.943 438.929 225.613 438.081 226.457C437.232 227.301 436.558 228.304 436.099 229.407C435.639 230.511 435.402 231.693 435.402 232.888C435.402 230.476 434.439 228.162 432.725 226.456C431.011 224.75 428.687 223.792 426.263 223.792C428.687 223.792 431.011 222.834 432.725 221.128C434.439 219.422 435.402 217.109 435.402 214.696C435.402 217.109 436.365 219.422 438.078 221.128C439.792 222.834 442.117 223.792 444.54 223.792L444.543 223.795Z" fill="#141414"/>
<path d="M468.752 281.273C470.811 281.273 472.48 279.612 472.48 277.563C472.48 275.513 470.811 273.852 468.752 273.852C466.693 273.852 465.024 275.513 465.024 277.563C465.024 279.612 466.693 281.273 468.752 281.273Z" fill="#A1C487"/>
<path d="M315.776 238.997C317.835 238.997 319.504 237.336 319.504 235.286C319.504 233.237 317.835 231.575 315.776 231.575C313.717 231.575 312.048 233.237 312.048 235.286C312.048 237.336 313.717 238.997 315.776 238.997Z" fill="#A1C487"/>
<path d="M443.157 178.485C445.788 178.485 447.92 176.363 447.92 173.744C447.92 171.126 445.788 169.003 443.157 169.003C440.526 169.003 438.393 171.126 438.393 173.744C438.393 176.363 440.526 178.485 443.157 178.485Z" fill="#A1C487"/>
<path d="M182.197 277.327C180.21 277.327 178.304 278.113 176.899 279.512C175.494 280.911 174.704 282.808 174.704 284.786C174.704 282.808 173.915 280.911 172.509 279.512C171.104 278.113 169.198 277.327 167.211 277.327C169.198 277.327 171.104 276.542 172.509 275.143C173.915 273.744 174.704 271.847 174.704 269.869C174.704 271.847 175.494 273.744 176.899 275.143C178.304 276.542 180.21 277.327 182.197 277.327Z" fill="#141414"/>
<path d="M226.014 272.433C227.387 272.433 228.5 271.325 228.5 269.958C228.5 268.591 227.387 267.483 226.014 267.483C224.641 267.483 223.527 268.591 223.527 269.958C223.527 271.325 224.641 272.433 226.014 272.433Z" fill="#A1C487"/>
<path d="M296.389 147.928C295.189 147.927 294 148.162 292.891 148.619C291.782 149.076 290.775 149.745 289.926 150.59C289.077 151.434 288.404 152.437 287.944 153.54C287.484 154.643 287.247 155.826 287.247 157.021C287.247 154.608 286.284 152.295 284.57 150.589C282.857 148.883 280.532 147.925 278.109 147.925C280.532 147.925 282.857 146.966 284.57 145.261C286.284 143.555 287.247 141.241 287.247 138.829C287.247 141.241 288.21 143.555 289.924 145.261C291.637 146.966 293.962 147.925 296.386 147.925L296.389 147.928Z" fill="#141414"/>
<path d="M283.737 90.4535L283.744 90.4535L283.752 90.4532C284.934 90.4162 286.111 90.6158 287.213 91.0402C288.315 91.4645 289.32 92.1049 290.169 92.9233C291.017 93.7416 291.692 94.7212 292.152 95.8037C292.613 96.8863 292.85 98.0498 292.85 99.2253C292.85 100.401 292.613 101.564 292.152 102.647C291.692 103.729 291.017 104.709 290.169 105.527C289.32 106.346 288.315 106.986 287.213 107.41C286.111 107.835 284.934 108.034 283.752 107.997L283.744 107.997H283.737L245.756 107.997L245.753 107.997C244.654 108.004 243.57 107.749 242.591 107.254C241.611 106.759 240.765 106.039 240.122 105.153C239.479 104.267 239.059 103.242 238.895 102.162C238.731 101.082 238.828 99.9784 239.18 98.9435C239.531 97.9085 240.125 96.9718 240.914 96.2114C241.702 95.4509 242.662 94.8888 243.714 94.5721C244.765 94.2553 245.877 94.193 246.958 94.3906C248.038 94.5881 249.056 95.0396 249.925 95.7073L250.903 96.4583L250.724 95.2384C250.156 91.3546 251.145 87.4039 253.48 84.2397C255.814 81.0754 259.306 78.9516 263.201 78.3278C267.096 77.7041 271.082 78.6307 274.296 80.907C277.51 83.1832 279.695 86.6261 280.379 90.4914L280.479 91.0561L281.025 90.8801C281.901 90.5977 282.816 90.4537 283.737 90.4535Z" fill="white" stroke="#141414"/>
<path d="M292.153 357.051C293.526 357.051 294.639 355.943 294.639 354.576C294.639 353.21 293.526 352.102 292.153 352.102C290.779 352.102 289.666 353.21 289.666 354.576C289.666 355.943 290.779 357.051 292.153 357.051Z" fill="#A1C487"/>
</svg>
